Coordinates
version=1
nRows=60
nColumns=12
inDegrees=yes

Units are S.I. units (second, meters, Newtons, ...)
Angles are in degrees

endheader
time	SC_y	SC_z	SC_x	AC_y	AC_z	AC_x	GH_y	GH_z	GH_yy	EL_x	PS_y
       0.0              -26.81          29.97          66.72          31.89         -13.01          -16.1          125.3         -14.23          41.02          75.25          17.68
   0.04945               -26.8          29.96          66.72          31.89         -13.01          -16.1          125.3         -14.23          41.01          75.24          17.69
    0.0989               -26.8          29.96          66.72           31.9         -13.01          -16.1          125.2         -14.23           41.0          75.24          17.71
    0.1483               -26.8          29.96          66.71           31.9         -13.01         -16.09          125.2         -14.23          40.99          75.24          17.72
    0.1978               -26.8          29.96          66.71           31.9         -13.01         -16.09          125.1         -14.23          40.98          75.23          17.73
    0.2472               -26.8          29.95          66.71           31.9          -13.0         -16.08          125.1         -14.23          40.96          75.23          17.75
    0.2967              -26.79          29.95           66.7           31.9          -13.0         -16.08          125.0         -14.23          40.95          75.22          17.76
    0.3461              -26.79          29.95           66.7          31.91          -13.0         -16.07          125.0         -14.23          40.93          75.22          17.78
    0.3956              -26.79          29.94          66.69          31.91          -13.0         -16.07          124.9         -14.23          40.92          75.21           17.8
     0.445              -26.79          29.94          66.69          31.91          -13.0         -16.06          124.8         -14.23           40.9           75.2          17.82
    0.4945              -26.78          29.94          66.68          31.91         -12.99         -16.06          124.8         -14.23          40.88           75.2          17.84
    0.5439              -26.78          29.93          66.68          31.92         -12.99         -16.05          124.7         -14.23          40.86          75.19          17.86
    0.5934              -26.78          29.93          66.67          31.92         -12.99         -16.04          124.6         -14.23          40.84          75.18          17.89
    0.6428              -26.77          29.92          66.66          31.92         -12.98         -16.04          124.5         -14.23          40.81          75.18          17.91
    0.6923              -26.77          29.92          66.66          31.93         -12.98         -16.03          124.4         -14.23          40.79          75.17          17.94
    0.7417              -26.76          29.91          66.65          31.93         -12.98         -16.02          124.3         -14.23          40.76          75.16          17.97
    0.7912              -26.76           29.9          66.64          31.93         -12.97         -16.01          124.2         -14.23          40.73          75.15           18.0
    0.8406              -26.75           29.9          66.63          31.94         -12.97          -16.0          124.1         -14.23          40.69          75.14          18.04
    0.8901              -26.75          29.89          66.62          31.94         -12.96         -15.99          123.9         -14.23          40.66          75.12          18.08
    0.9395              -26.74          29.88          66.61          31.95         -12.96         -15.97          123.8         -14.23          40.62          75.11          18.12
     0.989              -26.73          29.87          66.59          31.95         -12.95         -15.96          123.6         -14.23          40.57          75.09          18.17
     1.038              -26.72          29.86          66.58          31.96         -12.95         -15.94          123.4         -14.23          40.52          75.08          18.22
     1.088              -26.71          29.85          66.56          31.97         -12.94         -15.93          123.2         -14.23          40.47          75.06          18.28
     1.137               -26.7          29.84          66.55          31.98         -12.93         -15.91          123.0         -14.23          40.41          75.04          18.35
     1.187              -26.69          29.82          66.53          31.98         -12.92         -15.89          122.8         -14.23          40.34          75.02          18.42
     1.236              -26.68          29.81          66.51          31.99         -12.91         -15.86          122.5         -14.23          40.27          74.99           18.5
     1.286              -26.67          29.79          66.48          32.01          -12.9         -15.84          122.2         -14.23          40.19          74.97          18.59
     1.335              -26.65          29.77          66.46          32.02         -12.89         -15.81          121.8         -14.23          40.09          74.93          18.69
     1.385              -26.64          29.75          66.43          32.03         -12.88         -15.77          121.4         -14.23          39.99           74.9           18.8
     1.434              -26.62          29.72          66.39          32.05         -12.86         -15.74          121.0         -14.23          39.87          74.86          18.93
     1.483              -26.59          29.69          66.35          32.07         -12.85         -15.69          120.5         -14.23          39.73          74.81          19.08
     1.533              -26.57          29.66          66.31          32.09         -12.83         -15.64          119.9         -14.23          39.58          74.76          19.24
     1.582              -26.54          29.62          66.26          32.11          -12.8         -15.59          119.2         -14.23           39.4           74.7          19.44
     1.632               -26.5          29.57           66.2          32.14         -12.77         -15.52          118.4         -14.23          39.19          74.63          19.67
     1.681              -26.46          29.52          66.13          32.17         -12.74         -15.44          117.5         -14.23          38.94          74.55          19.93
     1.731              -26.42          29.46          66.04          32.21         -12.71         -15.35          116.4         -14.23          38.65          74.45          20.24
      1.78              -26.36          29.39          65.94          32.26         -12.66         -15.24          115.2         -14.23          38.31          74.33          20.61
      1.83              -26.29           29.3          65.83          32.31         -12.61         -15.11          113.6         -14.23           37.9           74.2          21.06
     1.879              -26.21          29.19          65.68          32.38         -12.54         -14.95          111.8         -14.23           37.4          74.03           21.6
     1.929              -26.11          29.06          65.51          32.46         -12.47         -14.76          109.5         -14.23          36.79          73.82          22.25
     1.978              -25.99           28.9          65.29          32.56         -12.37         -14.52          106.7         -14.23          36.04          73.57          23.06
     2.027              -25.83           28.7          65.02          32.69         -12.25         -14.23          103.2         -14.23          35.11          73.26          24.07
     2.077              -25.64          28.44          64.69          32.85          -12.1         -13.85          98.77         -14.23          33.93          72.86          25.35
     2.126              -25.39          28.12          64.25          33.05          -11.9         -13.38          93.17         -14.23          32.43          72.35          26.97
     2.176              -25.07          27.71           63.7          33.31         -11.66         -12.77          85.99         -14.23          30.51          71.71          29.04
     2.225              -24.67          27.18           63.0          33.64         -11.34         -11.99          76.79         -14.24          28.04          70.88           31.7
     2.275              -24.15          26.51          62.09          34.07         -10.93         -10.99          65.04         -14.24           24.9          69.82          35.09
     2.324               -23.5          25.66          60.96           34.6         -10.42         -9.736          50.25         -14.24          20.94          68.49          39.37
     2.374               -22.7          24.63          59.57          35.25         -9.802         -8.207          32.24         -14.24          16.12          66.87          44.57
     2.423              -21.78          23.43          57.97           36.0         -9.082         -6.436          11.36         -14.24          10.54          64.99           50.6
     2.472              -20.78          22.13          56.23          36.82         -8.302         -4.518         -11.24         -14.25          4.485          62.95          57.14
     2.522              -19.79          20.83          54.49          37.63         -7.522         -2.599         -33.85         -14.25         -1.565          60.92          63.67
     2.571              -18.87          19.63          52.89          38.39         -6.802        -0.8277         -54.73         -14.25         -7.152          59.04           69.7
     2.621              -18.07           18.6           51.5          39.03         -6.181         0.7006         -72.74         -14.25         -11.97          57.42          74.91
      2.67              -17.42          17.75          50.37          39.57         -5.671          1.955         -87.53         -14.25         -15.93          56.09          79.18
      2.72               -16.9          17.08          49.46          39.99         -5.265          2.952         -99.28         -14.26         -19.07          55.03          82.57
     2.769               -16.5          16.55          48.75          40.32         -4.948          3.733         -108.5         -14.26         -21.54           54.2          85.23
     2.819              -16.18          16.14           48.2          40.58           -4.7          4.342         -115.7         -14.26         -23.46          53.55           87.3
     2.868              -15.93          15.82          47.77          40.78         -4.507          4.817         -121.3         -14.26         -24.96          53.05          88.92
     2.918              -15.74          15.56          47.43          40.94         -4.355          5.191         -125.7         -14.26         -26.14          52.65           90.2
